<svg width="246" height="23" viewBox="0 0 246 23" fill="none" xmlns="http://www.w3.org/2000/svg">
<path d="M72.8101 13.5005C72.7049 14.9539 72.1668 16.0981 71.1958 16.9331C70.231 17.7681 68.9569 18.1855 67.3735 18.1855C65.6418 18.1855 64.278 17.6042 63.2822 16.4414C62.2926 15.2725 61.7979 13.6706 61.7979 11.6357V10.8101C61.7979 9.51123 62.0267 8.36702 62.4844 7.37744C62.9421 6.38786 63.5946 5.63021 64.4419 5.10449C65.2954 4.57259 66.285 4.30664 67.4106 4.30664C68.9692 4.30664 70.2248 4.72412 71.1772 5.55908C72.1297 6.39404 72.6802 7.56608 72.8286 9.0752H70.0454C69.9774 8.20312 69.7331 7.57227 69.3125 7.18262C68.8981 6.78678 68.2642 6.58887 67.4106 6.58887C66.4829 6.58887 65.7871 6.92285 65.3232 7.59082C64.8656 8.2526 64.6305 9.28239 64.6182 10.6802V11.7007C64.6182 13.1603 64.8377 14.2272 65.2769 14.9014C65.7222 15.5755 66.4211 15.9126 67.3735 15.9126C68.2332 15.9126 68.8734 15.7178 69.2939 15.3281C69.7207 14.9323 69.965 14.3231 70.0269 13.5005H72.8101ZM80.2783 18C80.1546 17.7588 80.0649 17.4588 80.0093 17.1001C79.3599 17.8237 78.5156 18.1855 77.4766 18.1855C76.4932 18.1855 75.6768 17.901 75.0273 17.332C74.3841 16.763 74.0625 16.0456 74.0625 15.1797C74.0625 14.1159 74.4552 13.2995 75.2407 12.7305C76.0324 12.1615 77.1735 11.8739 78.6641 11.8677H79.8979V11.2925C79.8979 10.8286 79.7773 10.4575 79.5361 10.1792C79.3011 9.90088 78.9269 9.76172 78.4136 9.76172C77.9621 9.76172 77.6064 9.86995 77.3467 10.0864C77.0931 10.3029 76.9663 10.5998 76.9663 10.9771H74.2852C74.2852 10.3957 74.4645 9.85758 74.8232 9.36279C75.182 8.868 75.6891 8.48145 76.3447 8.20312C77.0003 7.91862 77.7363 7.77637 78.5527 7.77637C79.7897 7.77637 80.77 8.0887 81.4937 8.71338C82.2235 9.33187 82.5884 10.2039 82.5884 11.3296V15.6807C82.5946 16.6331 82.7275 17.3537 82.9873 17.8423V18H80.2783ZM78.061 16.1353C78.4569 16.1353 78.8218 16.0487 79.1558 15.8755C79.4897 15.6961 79.7371 15.458 79.8979 15.1611V13.4355H78.896C77.5539 13.4355 76.8395 13.8994 76.7529 14.8271L76.7437 14.9849C76.7437 15.3188 76.8612 15.5941 77.0962 15.8105C77.3312 16.027 77.6528 16.1353 78.061 16.1353ZM87.4775 18H84.7871V3.75H87.4775V18ZM94.3149 18.1855C92.8429 18.1855 91.6431 17.734 90.7153 16.8311C89.7938 15.9281 89.333 14.7251 89.333 13.2222V12.9624C89.333 11.9543 89.5278 11.0544 89.9175 10.2627C90.3071 9.46484 90.8576 8.85254 91.5688 8.42578C92.2863 7.99284 93.1027 7.77637 94.0181 7.77637C95.3911 7.77637 96.4704 8.20931 97.2559 9.0752C98.0475 9.94108 98.4434 11.1688 98.4434 12.7583V13.853H92.0513C92.1379 14.5086 92.3976 15.0343 92.8306 15.4302C93.2697 15.826 93.8232 16.0239 94.4912 16.0239C95.5241 16.0239 96.3312 15.6497 96.9126 14.9014L98.23 16.3765C97.828 16.9455 97.2837 17.3908 96.5972 17.7124C95.9106 18.0278 95.1499 18.1855 94.3149 18.1855ZM94.0088 9.94727C93.4769 9.94727 93.0439 10.1266 92.71 10.4854C92.3822 10.8441 92.1719 11.3574 92.0791 12.0254H95.8086V11.812C95.7962 11.2183 95.6354 10.7606 95.3262 10.439C95.0169 10.1112 94.5778 9.94727 94.0088 9.94727ZM102.442 7.96191L102.525 9.12158C103.243 8.22477 104.205 7.77637 105.411 7.77637C106.474 7.77637 107.266 8.0887 107.786 8.71338C108.305 9.33805 108.571 10.272 108.583 11.5151V18H105.902V11.5801C105.902 11.0111 105.779 10.5998 105.531 10.3462C105.284 10.0864 104.873 9.95654 104.297 9.95654C103.543 9.95654 102.977 10.2782 102.6 10.9214V18H99.9185V7.96191H102.442ZM110.207 12.9067C110.207 11.342 110.556 10.0957 111.255 9.16797C111.96 8.24023 112.922 7.77637 114.141 7.77637C115.118 7.77637 115.925 8.14128 116.562 8.87109V3.75H119.252V18H116.831L116.701 16.9331C116.033 17.7681 115.174 18.1855 114.122 18.1855C112.941 18.1855 111.991 17.7217 111.274 16.7939C110.563 15.86 110.207 14.5643 110.207 12.9067ZM112.888 13.1016C112.888 14.0417 113.052 14.7622 113.38 15.2632C113.708 15.7642 114.184 16.0146 114.809 16.0146C115.637 16.0146 116.222 15.6652 116.562 14.9663V11.0049C116.228 10.306 115.65 9.95654 114.827 9.95654C113.535 9.95654 112.888 11.0049 112.888 13.1016ZM127.147 18C127.024 17.7588 126.934 17.4588 126.878 17.1001C126.229 17.8237 125.385 18.1855 124.346 18.1855C123.362 18.1855 122.546 17.901 121.896 17.332C121.253 16.763 120.932 16.0456 120.932 15.1797C120.932 14.1159 121.324 13.2995 122.11 12.7305C122.902 12.1615 124.043 11.8739 125.533 11.8677H126.767V11.2925C126.767 10.8286 126.646 10.4575 126.405 10.1792C126.17 9.90088 125.796 9.76172 125.283 9.76172C124.831 9.76172 124.476 9.86995 124.216 10.0864C123.962 10.3029 123.835 10.5998 123.835 10.9771H121.154C121.154 10.3957 121.334 9.85758 121.692 9.36279C122.051 8.868 122.558 8.48145 123.214 8.20312C123.869 7.91862 124.605 7.77637 125.422 7.77637C126.659 7.77637 127.639 8.0887 128.363 8.71338C129.093 9.33187 129.458 10.2039 129.458 11.3296V15.6807C129.464 16.6331 129.597 17.3537 129.856 17.8423V18H127.147ZM124.93 16.1353C125.326 16.1353 125.691 16.0487 126.025 15.8755C126.359 15.6961 126.606 15.458 126.767 15.1611V13.4355H125.765C124.423 13.4355 123.709 13.8994 123.622 14.8271L123.613 14.9849C123.613 15.3188 123.73 15.5941 123.965 15.8105C124.2 16.027 124.522 16.1353 124.93 16.1353ZM137.158 10.4761C136.793 10.4266 136.471 10.4019 136.193 10.4019C135.179 10.4019 134.514 10.7451 134.198 11.4316V18H131.517V7.96191H134.05L134.124 9.15869C134.662 8.23714 135.407 7.77637 136.36 7.77637C136.657 7.77637 136.935 7.81657 137.195 7.89697L137.158 10.4761ZM142.771 12.8882C142.771 11.8924 142.962 11.0049 143.346 10.2256C143.729 9.44629 144.28 8.84326 144.997 8.4165C145.721 7.98975 146.559 7.77637 147.511 7.77637C148.866 7.77637 149.97 8.19076 150.823 9.01953C151.683 9.84831 152.162 10.974 152.261 12.3965L152.28 13.083C152.28 14.623 151.85 15.86 150.99 16.7939C150.131 17.7217 148.977 18.1855 147.53 18.1855C146.083 18.1855 144.926 17.7217 144.06 16.7939C143.2 15.8662 142.771 14.6045 142.771 13.0088V12.8882ZM145.452 13.083C145.452 14.0355 145.631 14.7653 145.99 15.2725C146.348 15.7734 146.862 16.0239 147.53 16.0239C148.179 16.0239 148.686 15.7765 149.051 15.2817C149.416 14.7808 149.599 13.9829 149.599 12.8882C149.599 11.9543 149.416 11.2306 149.051 10.7173C148.686 10.2039 148.173 9.94727 147.511 9.94727C146.856 9.94727 146.348 10.2039 145.99 10.7173C145.631 11.2244 145.452 12.013 145.452 13.083ZM154.664 18V9.92871H153.17V7.96191H154.664V7.1084C154.664 5.98275 154.986 5.11068 155.629 4.49219C156.278 3.86751 157.184 3.55518 158.347 3.55518C158.718 3.55518 159.173 3.61702 159.711 3.74072L159.683 5.81885C159.46 5.76318 159.188 5.73535 158.867 5.73535C157.859 5.73535 157.354 6.2085 157.354 7.15479V7.96191H159.349V9.92871H157.354V18H154.664ZM173.775 12.146H168.432V15.7642H174.703V18H165.648V4.49219H174.685V6.74658H168.432V9.96582H173.775V12.146ZM179.676 14.7251L181.541 7.96191H184.342L180.956 18H178.396L175.009 7.96191H177.811L179.676 14.7251ZM190.02 18.1855C188.548 18.1855 187.348 17.734 186.42 16.8311C185.499 15.9281 185.038 14.7251 185.038 13.2222V12.9624C185.038 11.9543 185.233 11.0544 185.623 10.2627C186.012 9.46484 186.563 8.85254 187.274 8.42578C187.991 7.99284 188.808 7.77637 189.723 7.77637C191.096 7.77637 192.175 8.20931 192.961 9.0752C193.753 9.94108 194.148 11.1688 194.148 12.7583V13.853H187.756C187.843 14.5086 188.103 15.0343 188.536 15.4302C188.975 15.826 189.528 16.0239 190.196 16.0239C191.229 16.0239 192.036 15.6497 192.618 14.9014L193.935 16.3765C193.533 16.9455 192.989 17.3908 192.302 17.7124C191.616 18.0278 190.855 18.1855 190.02 18.1855ZM189.714 9.94727C189.182 9.94727 188.749 10.1266 188.415 10.4854C188.087 10.8441 187.877 11.3574 187.784 12.0254H191.514V11.812C191.501 11.2183 191.34 10.7606 191.031 10.439C190.722 10.1112 190.283 9.94727 189.714 9.94727ZM198.147 7.96191L198.23 9.12158C198.948 8.22477 199.91 7.77637 201.116 7.77637C202.18 7.77637 202.971 8.0887 203.491 8.71338C204.01 9.33805 204.276 10.272 204.289 11.5151V18H201.607V11.5801C201.607 11.0111 201.484 10.5998 201.236 10.3462C200.989 10.0864 200.578 9.95654 200.002 9.95654C199.248 9.95654 198.682 10.2782 198.305 10.9214V18H195.624V7.96191H198.147ZM209.54 5.49414V7.96191H211.256V9.92871H209.54V14.9385C209.54 15.3096 209.611 15.5755 209.753 15.7363C209.895 15.8971 210.167 15.9775 210.569 15.9775C210.866 15.9775 211.129 15.9559 211.358 15.9126V17.9443C210.832 18.1051 210.291 18.1855 209.734 18.1855C207.854 18.1855 206.896 17.2362 206.858 15.3374V9.92871H205.393V7.96191H206.858V5.49414H209.54ZM218.186 15.2261C218.186 14.8983 218.022 14.6416 217.694 14.4561C217.373 14.2643 216.853 14.0942 216.136 13.9458C213.748 13.4448 212.555 12.4305 212.555 10.9028C212.555 10.0122 212.923 9.27002 213.659 8.67627C214.401 8.07633 215.369 7.77637 216.562 7.77637C217.837 7.77637 218.854 8.07633 219.615 8.67627C220.382 9.2762 220.765 10.0555 220.765 11.0142H218.084C218.084 10.6307 217.96 10.3153 217.713 10.0679C217.465 9.81429 217.079 9.6875 216.553 9.6875C216.102 9.6875 215.752 9.78955 215.505 9.99365C215.257 10.1978 215.134 10.4575 215.134 10.7729C215.134 11.0698 215.273 11.311 215.551 11.4966C215.836 11.6759 216.312 11.8337 216.98 11.9697C217.648 12.0996 218.211 12.248 218.668 12.415C220.085 12.9346 220.793 13.8345 220.793 15.1147C220.793 16.0301 220.4 16.7723 219.615 17.3413C218.829 17.9041 217.815 18.1855 216.572 18.1855C215.731 18.1855 214.982 18.0371 214.327 17.7402C213.677 17.4372 213.167 17.0259 212.796 16.5063C212.425 15.9806 212.239 15.4147 212.239 14.8086H214.781C214.806 15.2848 214.982 15.6497 215.31 15.9033C215.638 16.1569 216.077 16.2837 216.627 16.2837C217.141 16.2837 217.527 16.1878 217.787 15.9961C218.053 15.7982 218.186 15.5415 218.186 15.2261Z" fill="#5D2252"/>
<path d="M225 12L246 12" stroke="#5D2252" stroke-width="5"/>
<path d="M21 12H57" stroke="#5D2252" stroke-width="5"/>
<path fill-rule="evenodd" clip-rule="evenodd" d="M11.0976 22.1951C17.2266 22.1951 22.1951 17.2266 22.1951 11.0976C22.1951 4.96855 17.2266 0 11.0976 0C4.96855 0 0 4.96855 0 11.0976C0 17.2266 4.96855 22.1951 11.0976 22.1951ZM11.0976 19.0244C15.4754 19.0244 19.0244 15.4754 19.0244 11.0976C19.0244 6.71971 15.4754 3.17075 11.0976 3.17075C6.71971 3.17075 3.17075 6.71971 3.17075 11.0976C3.17075 15.4754 6.71971 19.0244 11.0976 19.0244Z" fill="#5D2252"/>
</svg>
