<svg width="246" height="23" viewBox="0 0 246 23" fill="none" xmlns="http://www.w3.org/2000/svg">
<path d="M158.333 12.146H152.989V15.7642H159.261V18H150.206V4.49219H159.242V6.74658H152.989V9.96582H158.333V12.146ZM167.898 14.4561C167.898 13.9303 167.712 13.5283 167.341 13.25C166.97 12.9655 166.302 12.6686 165.337 12.3594C164.373 12.0439 163.609 11.7347 163.046 11.4316C161.512 10.6029 160.745 9.48649 160.745 8.08252C160.745 7.3527 160.949 6.70329 161.357 6.13428C161.772 5.55908 162.362 5.11068 163.129 4.78906C163.903 4.46745 164.768 4.30664 165.727 4.30664C166.692 4.30664 167.552 4.48291 168.306 4.83545C169.061 5.1818 169.645 5.6735 170.06 6.31055C170.48 6.94759 170.69 7.67122 170.69 8.48145H167.907C167.907 7.86296 167.712 7.38363 167.323 7.04346C166.933 6.6971 166.386 6.52393 165.681 6.52393C165 6.52393 164.472 6.66927 164.094 6.95996C163.717 7.24447 163.528 7.62174 163.528 8.0918C163.528 8.53092 163.748 8.89893 164.187 9.1958C164.632 9.49268 165.285 9.771 166.145 10.0308C167.728 10.507 168.881 11.0977 169.605 11.8027C170.329 12.5078 170.69 13.3861 170.69 14.4375C170.69 15.6064 170.248 16.5249 169.364 17.1929C168.479 17.8547 167.289 18.1855 165.792 18.1855C164.753 18.1855 163.807 17.9969 162.953 17.6196C162.1 17.2362 161.447 16.7135 160.996 16.0518C160.55 15.39 160.328 14.623 160.328 13.751H163.12C163.12 15.2415 164.011 15.9868 165.792 15.9868C166.454 15.9868 166.97 15.8538 167.341 15.5879C167.712 15.3158 167.898 14.9385 167.898 14.4561ZM181.443 13.0737C181.443 14.62 181.09 15.86 180.385 16.7939C179.686 17.7217 178.74 18.1855 177.546 18.1855C176.532 18.1855 175.713 17.833 175.088 17.1279V21.8594H172.407V7.96191H174.893L174.986 8.94531C175.635 8.16602 176.483 7.77637 177.528 7.77637C178.765 7.77637 179.727 8.23405 180.413 9.14941C181.1 10.0648 181.443 11.3265 181.443 12.9346V13.0737ZM178.762 12.8789C178.762 11.945 178.595 11.2244 178.261 10.7173C177.933 10.2101 177.454 9.95654 176.823 9.95654C175.982 9.95654 175.403 10.2782 175.088 10.9214V15.0312C175.416 15.693 176 16.0239 176.841 16.0239C178.122 16.0239 178.762 14.9756 178.762 12.8789ZM182.695 12.8882C182.695 11.8924 182.887 11.0049 183.271 10.2256C183.654 9.44629 184.204 8.84326 184.922 8.4165C185.646 7.98975 186.484 7.77637 187.436 7.77637C188.791 7.77637 189.895 8.19076 190.748 9.01953C191.608 9.84831 192.087 10.974 192.186 12.3965L192.205 13.083C192.205 14.623 191.775 15.86 190.915 16.7939C190.055 17.7217 188.902 18.1855 187.455 18.1855C186.007 18.1855 184.851 17.7217 183.985 16.7939C183.125 15.8662 182.695 14.6045 182.695 13.0088V12.8882ZM185.376 13.083C185.376 14.0355 185.556 14.7653 185.915 15.2725C186.273 15.7734 186.787 16.0239 187.455 16.0239C188.104 16.0239 188.611 15.7765 188.976 15.2817C189.341 14.7808 189.523 13.9829 189.523 12.8882C189.523 11.9543 189.341 11.2306 188.976 10.7173C188.611 10.2039 188.098 9.94727 187.436 9.94727C186.78 9.94727 186.273 10.2039 185.915 10.7173C185.556 11.2244 185.376 12.013 185.376 13.083ZM199.497 10.4761C199.132 10.4266 198.81 10.4019 198.532 10.4019C197.517 10.4019 196.853 10.7451 196.537 11.4316V18H193.856V7.96191H196.389L196.463 9.15869C197.001 8.23714 197.746 7.77637 198.699 7.77637C198.996 7.77637 199.274 7.81657 199.534 7.89697L199.497 10.4761ZM204.469 5.49414V7.96191H206.186V9.92871H204.469V14.9385C204.469 15.3096 204.54 15.5755 204.683 15.7363C204.825 15.8971 205.097 15.9775 205.499 15.9775C205.796 15.9775 206.059 15.9559 206.288 15.9126V17.9443C205.762 18.1051 205.221 18.1855 204.664 18.1855C202.784 18.1855 201.825 17.2362 201.788 15.3374V9.92871H200.322V7.96191H201.788V5.49414H204.469ZM213.116 15.2261C213.116 14.8983 212.952 14.6416 212.624 14.4561C212.302 14.2643 211.783 14.0942 211.065 13.9458C208.678 13.4448 207.484 12.4305 207.484 10.9028C207.484 10.0122 207.852 9.27002 208.588 8.67627C209.331 8.07633 210.299 7.77637 211.492 7.77637C212.766 7.77637 213.784 8.07633 214.544 8.67627C215.311 9.2762 215.695 10.0555 215.695 11.0142H213.014C213.014 10.6307 212.89 10.3153 212.643 10.0679C212.395 9.81429 212.009 9.6875 211.483 9.6875C211.031 9.6875 210.682 9.78955 210.435 9.99365C210.187 10.1978 210.063 10.4575 210.063 10.7729C210.063 11.0698 210.203 11.311 210.481 11.4966C210.765 11.6759 211.242 11.8337 211.91 11.9697C212.578 12.0996 213.14 12.248 213.598 12.415C215.014 12.9346 215.723 13.8345 215.723 15.1147C215.723 16.0301 215.33 16.7723 214.544 17.3413C213.759 17.9041 212.745 18.1855 211.501 18.1855C210.66 18.1855 209.912 18.0371 209.256 17.7402C208.607 17.4372 208.097 17.0259 207.726 16.5063C207.354 15.9806 207.169 15.4147 207.169 14.8086H209.711C209.736 15.2848 209.912 15.6497 210.24 15.9033C210.568 16.1569 211.007 16.2837 211.557 16.2837C212.07 16.2837 212.457 16.1878 212.717 15.9961C212.983 15.7982 213.116 15.5415 213.116 15.2261Z" fill="#5D2252"/>
<path d="M219 12L246 12" stroke="#5D2252" stroke-width="5"/>
<path d="M21 12H142" stroke="#5D2252" stroke-width="5"/>
<path fill-rule="evenodd" clip-rule="evenodd" d="M11.0976 22.1951C17.2266 22.1951 22.1951 17.2266 22.1951 11.0976C22.1951 4.96855 17.2266 0 11.0976 0C4.96855 0 0 4.96855 0 11.0976C0 17.2266 4.96855 22.1951 11.0976 22.1951ZM11.0976 19.0244C15.4754 19.0244 19.0244 15.4754 19.0244 11.0976C19.0244 6.71971 15.4754 3.17075 11.0976 3.17075C6.71971 3.17075 3.17075 6.71971 3.17075 11.0976C3.17075 15.4754 6.71971 19.0244 11.0976 19.0244Z" fill="#5D2252"/>
</svg>
