<svg width="246" height="23" viewBox="0 0 246 23" fill="none" xmlns="http://www.w3.org/2000/svg">
<path d="M134.894 15.293C134.393 15.8929 133.684 16.3599 132.769 16.6938C131.854 17.0216 130.839 17.1855 129.726 17.1855C128.557 17.1855 127.53 16.932 126.646 16.4248C125.768 15.9115 125.087 15.1693 124.605 14.1982C124.129 13.2272 123.884 12.0861 123.872 10.7749V9.85645C123.872 8.50814 124.098 7.34229 124.549 6.35889C125.007 5.3693 125.663 4.61475 126.516 4.09521C127.376 3.5695 128.381 3.30664 129.531 3.30664C131.133 3.30664 132.386 3.6901 133.289 4.45703C134.192 5.21777 134.727 6.32796 134.894 7.7876H132.185C132.061 7.01449 131.786 6.44857 131.359 6.08984C130.938 5.73112 130.357 5.55176 129.615 5.55176C128.668 5.55176 127.948 5.90739 127.453 6.61865C126.958 7.32992 126.708 8.38753 126.702 9.7915V10.6543C126.702 12.0706 126.971 13.1406 127.509 13.8643C128.047 14.5879 128.835 14.9497 129.875 14.9497C130.92 14.9497 131.665 14.7271 132.11 14.2817V11.9531H129.578V9.90283H134.894V15.293ZM139.811 17H137.12V6.96191H139.811V17ZM136.962 4.36426C136.962 3.96224 137.095 3.63135 137.361 3.37158C137.633 3.11182 138.001 2.98193 138.465 2.98193C138.923 2.98193 139.288 3.11182 139.56 3.37158C139.832 3.63135 139.968 3.96224 139.968 4.36426C139.968 4.77246 139.829 5.10645 139.551 5.36621C139.279 5.62598 138.917 5.75586 138.465 5.75586C138.014 5.75586 137.649 5.62598 137.371 5.36621C137.098 5.10645 136.962 4.77246 136.962 4.36426ZM145.785 13.7251L147.65 6.96191H150.452L147.065 17H144.505L141.119 6.96191H143.92L145.785 13.7251ZM156.129 17.1855C154.657 17.1855 153.458 16.734 152.53 15.8311C151.608 14.9281 151.147 13.7251 151.147 12.2222V11.9624C151.147 10.9543 151.342 10.0544 151.732 9.2627C152.122 8.46484 152.672 7.85254 153.383 7.42578C154.101 6.99284 154.917 6.77637 155.833 6.77637C157.206 6.77637 158.285 7.20931 159.07 8.0752C159.862 8.94108 160.258 10.1688 160.258 11.7583V12.853H153.866C153.952 13.5086 154.212 14.0343 154.645 14.4302C155.084 14.826 155.638 15.0239 156.306 15.0239C157.339 15.0239 158.146 14.6497 158.727 13.9014L160.044 15.3765C159.642 15.9455 159.098 16.3908 158.412 16.7124C157.725 17.0278 156.964 17.1855 156.129 17.1855ZM155.823 8.94727C155.291 8.94727 154.858 9.12663 154.524 9.48535C154.197 9.84408 153.986 10.3574 153.894 11.0254H157.623V10.812C157.611 10.2183 157.45 9.76058 157.141 9.43896C156.831 9.11117 156.392 8.94727 155.823 8.94727ZM167.605 17C167.482 16.7588 167.392 16.4588 167.336 16.1001C166.687 16.8237 165.843 17.1855 164.804 17.1855C163.82 17.1855 163.004 16.901 162.354 16.332C161.711 15.763 161.39 15.0456 161.39 14.1797C161.39 13.1159 161.782 12.2995 162.568 11.7305C163.36 11.1615 164.501 10.8739 165.991 10.8677H167.225V10.2925C167.225 9.82861 167.104 9.45752 166.863 9.1792C166.628 8.90088 166.254 8.76172 165.741 8.76172C165.289 8.76172 164.934 8.86995 164.674 9.08643C164.42 9.3029 164.293 9.59977 164.293 9.97705H161.612C161.612 9.39567 161.792 8.85758 162.15 8.36279C162.509 7.868 163.016 7.48145 163.672 7.20312C164.327 6.91862 165.063 6.77637 165.88 6.77637C167.117 6.77637 168.097 7.0887 168.821 7.71338C169.551 8.33187 169.916 9.20394 169.916 10.3296V14.6807C169.922 15.6331 170.055 16.3537 170.314 16.8423V17H167.605ZM165.388 15.1353C165.784 15.1353 166.149 15.0487 166.483 14.8755C166.817 14.6961 167.064 14.458 167.225 14.1611V12.4355H166.223C164.881 12.4355 164.167 12.8994 164.08 13.8271L164.071 13.9849C164.071 14.3188 164.188 14.5941 164.423 14.8105C164.658 15.027 164.98 15.1353 165.388 15.1353ZM180.705 13.354L182.022 6.96191H184.611L182.05 17H179.805L177.903 10.6821L176.001 17H173.766L171.205 6.96191H173.793L175.102 13.3447L176.938 6.96191H178.877L180.705 13.354ZM191.764 17C191.64 16.7588 191.55 16.4588 191.495 16.1001C190.845 16.8237 190.001 17.1855 188.962 17.1855C187.979 17.1855 187.162 16.901 186.513 16.332C185.869 15.763 185.548 15.0456 185.548 14.1797C185.548 13.1159 185.941 12.2995 186.726 11.7305C187.518 11.1615 188.659 10.8739 190.149 10.8677H191.383V10.2925C191.383 9.82861 191.263 9.45752 191.021 9.1792C190.786 8.90088 190.412 8.76172 189.899 8.76172C189.447 8.76172 189.092 8.86995 188.832 9.08643C188.578 9.3029 188.452 9.59977 188.452 9.97705H185.771C185.771 9.39567 185.95 8.85758 186.309 8.36279C186.667 7.868 187.174 7.48145 187.83 7.20312C188.486 6.91862 189.222 6.77637 190.038 6.77637C191.275 6.77637 192.255 7.0887 192.979 7.71338C193.709 8.33187 194.074 9.20394 194.074 10.3296V14.6807C194.08 15.6331 194.213 16.3537 194.473 16.8423V17H191.764ZM189.546 15.1353C189.942 15.1353 190.307 15.0487 190.641 14.8755C190.975 14.6961 191.222 14.458 191.383 14.1611V12.4355H190.381C189.039 12.4355 188.325 12.8994 188.238 13.8271L188.229 13.9849C188.229 14.3188 188.347 14.5941 188.582 14.8105C188.817 15.027 189.138 15.1353 189.546 15.1353ZM199.733 13.2056L201.588 6.96191H204.464L200.429 18.5586L200.206 19.0874C199.606 20.3986 198.617 21.0542 197.237 21.0542C196.848 21.0542 196.452 20.9954 196.05 20.8779V18.8462L196.458 18.8555C196.965 18.8555 197.342 18.7782 197.59 18.6235C197.843 18.4689 198.041 18.2122 198.184 17.8535L198.499 17.0278L194.983 6.96191H197.868L199.733 13.2056ZM210.958 14.2261C210.958 13.8983 210.795 13.6416 210.467 13.4561C210.145 13.2643 209.626 13.0942 208.908 12.9458C206.521 12.4448 205.327 11.4305 205.327 9.90283C205.327 9.01221 205.695 8.27002 206.431 7.67627C207.173 7.07633 208.141 6.77637 209.335 6.77637C210.609 6.77637 211.626 7.07633 212.387 7.67627C213.154 8.2762 213.538 9.0555 213.538 10.0142H210.856C210.856 9.6307 210.733 9.31527 210.485 9.06787C210.238 8.81429 209.851 8.6875 209.326 8.6875C208.874 8.6875 208.525 8.78955 208.277 8.99365C208.03 9.19775 207.906 9.45752 207.906 9.77295C207.906 10.0698 208.045 10.311 208.324 10.4966C208.608 10.6759 209.084 10.8337 209.752 10.9697C210.42 11.0996 210.983 11.248 211.441 11.415C212.857 11.9346 213.565 12.8345 213.565 14.1147C213.565 15.0301 213.173 15.7723 212.387 16.3413C211.602 16.9041 210.587 17.1855 209.344 17.1855C208.503 17.1855 207.755 17.0371 207.099 16.7402C206.45 16.4372 205.939 16.0259 205.568 15.5063C205.197 14.9806 205.012 14.4147 205.012 13.8086H207.554C207.578 14.2848 207.755 14.6497 208.083 14.9033C208.41 15.1569 208.849 15.2837 209.4 15.2837C209.913 15.2837 210.3 15.1878 210.56 14.9961C210.826 14.7982 210.958 14.5415 210.958 14.2261Z" fill="#5D2252"/>
<path d="M219 12L246 12" stroke="#5D2252" stroke-width="5"/>
<path d="M21 12H120" stroke="#5D2252" stroke-width="5"/>
<path fill-rule="evenodd" clip-rule="evenodd" d="M11.0976 22.1951C17.2266 22.1951 22.1951 17.2266 22.1951 11.0976C22.1951 4.96855 17.2266 0 11.0976 0C4.96855 0 0 4.96855 0 11.0976C0 17.2266 4.96855 22.1951 11.0976 22.1951ZM11.0976 19.0244C15.4754 19.0244 19.0244 15.4754 19.0244 11.0976C19.0244 6.71971 15.4754 3.17075 11.0976 3.17075C6.71971 3.17075 3.17075 6.71971 3.17075 11.0976C3.17075 15.4754 6.71971 19.0244 11.0976 19.0244Z" fill="#5D2252"/>
</svg>
