<svg width="850" height="35" viewBox="0 0 850 35" fill="none" xmlns="http://www.w3.org/2000/svg">
<path d="M396 19H849.5" stroke="#5D2252" stroke-width="5"/>
<circle cx="17.5" cy="17.5" r="17.5" fill="#5D2252"/>
<circle cx="17.5" cy="17.5" r="12.5" fill="white"/>
<path d="M32 19H82" stroke="#5D2252" stroke-width="5"/>
<path d="M89.1655 25H86.3823V11.4922H89.1655V25ZM94.0454 14.9619L94.1289 16.1216C94.8464 15.2248 95.8081 14.7764 97.0142 14.7764C98.078 14.7764 98.8696 15.0887 99.3892 15.7134C99.9087 16.3381 100.175 17.272 100.187 18.5151V25H97.5059V18.5801C97.5059 18.0111 97.3822 17.5998 97.1348 17.3462C96.8874 17.0864 96.4761 16.9565 95.9009 16.9565C95.1463 16.9565 94.5804 17.2782 94.2031 17.9214V25H91.522V14.9619H94.0454ZM102.961 25V16.9287H101.467V14.9619H102.961V14.1084C102.961 12.9827 103.283 12.1107 103.926 11.4922C104.575 10.8675 105.481 10.5552 106.644 10.5552C107.015 10.5552 107.47 10.617 108.008 10.7407L107.98 12.8188C107.757 12.7632 107.485 12.7354 107.164 12.7354C106.155 12.7354 105.651 13.2085 105.651 14.1548V14.9619H107.646V16.9287H105.651V25H102.961ZM108.62 19.8882C108.62 18.8924 108.812 18.0049 109.195 17.2256C109.579 16.4463 110.129 15.8433 110.847 15.4165C111.57 14.9897 112.408 14.7764 113.361 14.7764C114.715 14.7764 115.819 15.1908 116.673 16.0195C117.533 16.8483 118.012 17.974 118.111 19.3965L118.129 20.083C118.129 21.623 117.7 22.86 116.84 23.7939C115.98 24.7217 114.827 25.1855 113.379 25.1855C111.932 25.1855 110.776 24.7217 109.91 23.7939C109.05 22.8662 108.62 21.6045 108.62 20.0088V19.8882ZM111.301 20.083C111.301 21.0355 111.481 21.7653 111.839 22.2725C112.198 22.7734 112.711 23.0239 113.379 23.0239C114.029 23.0239 114.536 22.7765 114.901 22.2817C115.266 21.7808 115.448 20.9829 115.448 19.8882C115.448 18.9543 115.266 18.2306 114.901 17.7173C114.536 17.2039 114.023 16.9473 113.361 16.9473C112.705 16.9473 112.198 17.2039 111.839 17.7173C111.481 18.2244 111.301 19.013 111.301 20.083ZM125.421 17.4761C125.056 17.4266 124.735 17.4019 124.457 17.4019C123.442 17.4019 122.777 17.7451 122.462 18.4316V25H119.781V14.9619H122.313L122.388 16.1587C122.926 15.2371 123.671 14.7764 124.624 14.7764C124.92 14.7764 125.199 14.8166 125.458 14.897L125.421 17.4761ZM129.234 14.9619L129.318 16.0845C130.029 15.2124 130.991 14.7764 132.203 14.7764C133.496 14.7764 134.383 15.2866 134.866 16.3071C135.571 15.2866 136.576 14.7764 137.881 14.7764C138.969 14.7764 139.78 15.0949 140.312 15.7319C140.843 16.3628 141.109 17.3153 141.109 18.5894V25H138.419V18.5986C138.419 18.0296 138.308 17.6152 138.085 17.3555C137.862 17.0895 137.47 16.9565 136.907 16.9565C136.103 16.9565 135.546 17.34 135.237 18.1069L135.246 25H132.565V18.6079C132.565 18.0265 132.451 17.606 132.222 17.3462C131.993 17.0864 131.603 16.9565 131.053 16.9565C130.292 16.9565 129.742 17.272 129.401 17.9028V25H126.72V14.9619H129.234ZM148.995 25C148.871 24.7588 148.782 24.4588 148.726 24.1001C148.077 24.8237 147.232 25.1855 146.193 25.1855C145.21 25.1855 144.394 24.901 143.744 24.332C143.101 23.763 142.779 23.0456 142.779 22.1797C142.779 21.1159 143.172 20.2995 143.958 19.7305C144.749 19.1615 145.89 18.8739 147.381 18.8677H148.615V18.2925C148.615 17.8286 148.494 17.4575 148.253 17.1792C148.018 16.9009 147.644 16.7617 147.13 16.7617C146.679 16.7617 146.323 16.87 146.063 17.0864C145.81 17.3029 145.683 17.5998 145.683 17.9771H143.002C143.002 17.3957 143.181 16.8576 143.54 16.3628C143.899 15.868 144.406 15.4814 145.062 15.2031C145.717 14.9186 146.453 14.7764 147.27 14.7764C148.507 14.7764 149.487 15.0887 150.21 15.7134C150.94 16.3319 151.305 17.2039 151.305 18.3296V22.6807C151.311 23.6331 151.444 24.3537 151.704 24.8423V25H148.995ZM146.778 23.1353C147.174 23.1353 147.539 23.0487 147.873 22.8755C148.207 22.6961 148.454 22.458 148.615 22.1611V20.4355H147.613C146.271 20.4355 145.556 20.8994 145.47 21.8271L145.46 21.9849C145.46 22.3188 145.578 22.5941 145.813 22.8105C146.048 23.027 146.37 23.1353 146.778 23.1353ZM156.575 12.4941V14.9619H158.291V16.9287H156.575V21.9385C156.575 22.3096 156.646 22.5755 156.788 22.7363C156.93 22.8971 157.202 22.9775 157.604 22.9775C157.901 22.9775 158.164 22.9559 158.393 22.9126V24.9443C157.867 25.1051 157.326 25.1855 156.77 25.1855C154.889 25.1855 153.931 24.2362 153.894 22.3374V16.9287H152.428V14.9619H153.894V12.4941H156.575ZM162.614 25H159.924V14.9619H162.614V25ZM159.766 12.3643C159.766 11.9622 159.899 11.6313 160.165 11.3716C160.437 11.1118 160.805 10.9819 161.269 10.9819C161.727 10.9819 162.092 11.1118 162.364 11.3716C162.636 11.6313 162.772 11.9622 162.772 12.3643C162.772 12.7725 162.633 13.1064 162.354 13.3662C162.082 13.626 161.721 13.7559 161.269 13.7559C160.818 13.7559 160.453 13.626 160.174 13.3662C159.902 13.1064 159.766 12.7725 159.766 12.3643ZM164.414 19.8882C164.414 18.8924 164.606 18.0049 164.989 17.2256C165.373 16.4463 165.923 15.8433 166.641 15.4165C167.364 14.9897 168.202 14.7764 169.155 14.7764C170.509 14.7764 171.613 15.1908 172.467 16.0195C173.326 16.8483 173.806 17.974 173.905 19.3965L173.923 20.083C173.923 21.623 173.493 22.86 172.634 23.7939C171.774 24.7217 170.621 25.1855 169.173 25.1855C167.726 25.1855 166.569 24.7217 165.704 23.7939C164.844 22.8662 164.414 21.6045 164.414 20.0088V19.8882ZM167.095 20.083C167.095 21.0355 167.275 21.7653 167.633 22.2725C167.992 22.7734 168.505 23.0239 169.173 23.0239C169.823 23.0239 170.33 22.7765 170.695 22.2817C171.06 21.7808 171.242 20.9829 171.242 19.8882C171.242 18.9543 171.06 18.2306 170.695 17.7173C170.33 17.2039 169.817 16.9473 169.155 16.9473C168.499 16.9473 167.992 17.2039 167.633 17.7173C167.275 18.2244 167.095 19.013 167.095 20.083ZM178.042 14.9619L178.126 16.1216C178.843 15.2248 179.805 14.7764 181.011 14.7764C182.075 14.7764 182.867 15.0887 183.386 15.7134C183.906 16.3381 184.172 17.272 184.184 18.5151V25H181.503V18.5801C181.503 18.0111 181.379 17.5998 181.132 17.3462C180.884 17.0864 180.473 16.9565 179.898 16.9565C179.143 16.9565 178.577 17.2782 178.2 17.9214V25H175.519V14.9619H178.042ZM200.744 13.7466H196.606V25H193.823V13.7466H189.741V11.4922H200.744V13.7466ZM205.949 25.1855C204.477 25.1855 203.277 24.734 202.349 23.8311C201.428 22.9281 200.967 21.7251 200.967 20.2222V19.9624C200.967 18.9543 201.162 18.0544 201.551 17.2627C201.941 16.4648 202.491 15.8525 203.203 15.4258C203.92 14.9928 204.736 14.7764 205.652 14.7764C207.025 14.7764 208.104 15.2093 208.89 16.0752C209.681 16.9411 210.077 18.1688 210.077 19.7583V20.853H203.685C203.772 21.5086 204.031 22.0343 204.464 22.4302C204.903 22.826 205.457 23.0239 206.125 23.0239C207.158 23.0239 207.965 22.6497 208.546 21.9014L209.864 23.3765C209.462 23.9455 208.917 24.3908 208.231 24.7124C207.544 25.0278 206.784 25.1855 205.949 25.1855ZM205.643 16.9473C205.111 16.9473 204.678 17.1266 204.344 17.4854C204.016 17.8441 203.806 18.3574 203.713 19.0254H207.442V18.812C207.43 18.2183 207.269 17.7606 206.96 17.439C206.651 17.1112 206.212 16.9473 205.643 16.9473ZM215.783 23.0239C216.278 23.0239 216.68 22.8879 216.989 22.6157C217.298 22.3436 217.459 21.9818 217.471 21.5303H219.985C219.979 22.2106 219.794 22.8353 219.429 23.4043C219.064 23.9671 218.563 24.4062 217.926 24.7217C217.295 25.0309 216.596 25.1855 215.829 25.1855C214.394 25.1855 213.262 24.731 212.434 23.8218C211.605 22.9064 211.19 21.6447 211.19 20.0366V19.8604C211.19 18.3141 211.602 17.0802 212.424 16.1587C213.247 15.2371 214.376 14.7764 215.811 14.7764C217.066 14.7764 218.071 15.1351 218.826 15.8525C219.586 16.5638 219.973 17.5132 219.985 18.7007H217.471C217.459 18.1812 217.298 17.7606 216.989 17.439C216.68 17.1112 216.271 16.9473 215.764 16.9473C215.139 16.9473 214.666 17.1761 214.345 17.6338C214.029 18.0853 213.872 18.8213 213.872 19.8418V20.1201C213.872 21.153 214.029 21.8952 214.345 22.3467C214.66 22.7982 215.139 23.0239 215.783 23.0239ZM224.132 16.0566C224.844 15.2031 225.737 14.7764 226.813 14.7764C228.991 14.7764 230.095 16.0412 230.125 18.5708V25H227.444V18.645C227.444 18.0698 227.321 17.6462 227.073 17.374C226.826 17.0957 226.415 16.9565 225.839 16.9565C225.054 16.9565 224.485 17.2596 224.132 17.8657V25H221.451V10.75H224.132V16.0566ZM234.616 14.9619L234.699 16.1216C235.417 15.2248 236.378 14.7764 237.584 14.7764C238.648 14.7764 239.44 15.0887 239.959 15.7134C240.479 16.3381 240.745 17.272 240.757 18.5151V25H238.076V18.5801C238.076 18.0111 237.952 17.5998 237.705 17.3462C237.458 17.0864 237.046 16.9565 236.471 16.9565C235.717 16.9565 235.151 17.2782 234.773 17.9214V25H232.092V14.9619H234.616ZM242.381 19.8882C242.381 18.8924 242.573 18.0049 242.956 17.2256C243.34 16.4463 243.89 15.8433 244.607 15.4165C245.331 14.9897 246.169 14.7764 247.122 14.7764C248.476 14.7764 249.58 15.1908 250.434 16.0195C251.293 16.8483 251.773 17.974 251.872 19.3965L251.89 20.083C251.89 21.623 251.46 22.86 250.601 23.7939C249.741 24.7217 248.587 25.1855 247.14 25.1855C245.693 25.1855 244.536 24.7217 243.67 23.7939C242.811 22.8662 242.381 21.6045 242.381 20.0088V19.8882ZM245.062 20.083C245.062 21.0355 245.241 21.7653 245.6 22.2725C245.959 22.7734 246.472 23.0239 247.14 23.0239C247.79 23.0239 248.297 22.7765 248.662 22.2817C249.027 21.7808 249.209 20.9829 249.209 19.8882C249.209 18.9543 249.027 18.2306 248.662 17.7173C248.297 17.2039 247.783 16.9473 247.122 16.9473C246.466 16.9473 245.959 17.2039 245.6 17.7173C245.241 18.2244 245.062 19.013 245.062 20.083ZM256.371 25H253.681V10.75H256.371V25ZM258.171 19.8882C258.171 18.8924 258.363 18.0049 258.746 17.2256C259.13 16.4463 259.68 15.8433 260.397 15.4165C261.121 14.9897 261.959 14.7764 262.912 14.7764C264.266 14.7764 265.37 15.1908 266.224 16.0195C267.083 16.8483 267.563 17.974 267.662 19.3965L267.68 20.083C267.68 21.623 267.25 22.86 266.391 23.7939C265.531 24.7217 264.377 25.1855 262.93 25.1855C261.483 25.1855 260.326 24.7217 259.46 23.7939C258.601 22.8662 258.171 21.6045 258.171 20.0088V19.8882ZM260.852 20.083C260.852 21.0355 261.031 21.7653 261.39 22.2725C261.749 22.7734 262.262 23.0239 262.93 23.0239C263.58 23.0239 264.087 22.7765 264.452 22.2817C264.817 21.7808 264.999 20.9829 264.999 19.8882C264.999 18.9543 264.817 18.2306 264.452 17.7173C264.087 17.2039 263.573 16.9473 262.912 16.9473C262.256 16.9473 261.749 17.2039 261.39 17.7173C261.031 18.2244 260.852 19.013 260.852 20.083ZM268.942 19.9067C268.942 18.3667 269.307 17.1266 270.037 16.1865C270.773 15.2464 271.762 14.7764 273.005 14.7764C274.106 14.7764 274.963 15.1536 275.575 15.9082L275.687 14.9619H278.117V24.666C278.117 25.5443 277.916 26.3081 277.514 26.9575C277.118 27.6069 276.559 28.1017 275.835 28.4419C275.111 28.7821 274.264 28.9521 273.293 28.9521C272.557 28.9521 271.84 28.8037 271.141 28.5068C270.442 28.2161 269.913 27.8389 269.554 27.375L270.742 25.7422C271.41 26.4906 272.22 26.8647 273.172 26.8647C273.884 26.8647 274.437 26.673 274.833 26.2896C275.229 25.9123 275.427 25.3742 275.427 24.6753V24.1372C274.808 24.8361 273.995 25.1855 272.987 25.1855C271.781 25.1855 270.804 24.7155 270.055 23.7754C269.313 22.8291 268.942 21.5767 268.942 20.0181V19.9067ZM271.623 20.1016C271.623 21.0107 271.806 21.7251 272.17 22.2446C272.535 22.758 273.036 23.0146 273.673 23.0146C274.49 23.0146 275.074 22.7085 275.427 22.0962V17.875C275.068 17.2627 274.49 16.9565 273.692 16.9565C273.049 16.9565 272.542 17.2194 272.17 17.7451C271.806 18.2708 271.623 19.0563 271.623 20.1016ZM283.934 21.2056L285.79 14.9619H288.666L284.63 26.5586L284.407 27.0874C283.807 28.3986 282.818 29.0542 281.438 29.0542C281.049 29.0542 280.653 28.9954 280.251 28.8779V26.8462L280.659 26.8555C281.166 26.8555 281.544 26.7782 281.791 26.6235C282.045 26.4689 282.243 26.2122 282.385 25.8535L282.7 25.0278L279.184 14.9619H282.069L283.934 21.2056ZM305.151 21.1035L306.97 11.4922H309.744L306.747 25H303.945L301.747 15.9639L299.548 25H296.746L293.75 11.4922H296.523L298.351 21.085L300.578 11.4922H302.934L305.151 21.1035ZM315.403 25.1855C313.931 25.1855 312.731 24.734 311.803 23.8311C310.882 22.9281 310.421 21.7251 310.421 20.2222V19.9624C310.421 18.9543 310.616 18.0544 311.005 17.2627C311.395 16.4648 311.945 15.8525 312.657 15.4258C313.374 14.9928 314.191 14.7764 315.106 14.7764C316.479 14.7764 317.558 15.2093 318.344 16.0752C319.135 16.9411 319.531 18.1688 319.531 19.7583V20.853H313.139C313.226 21.5086 313.486 22.0343 313.918 22.4302C314.358 22.826 314.911 23.0239 315.579 23.0239C316.612 23.0239 317.419 22.6497 318 21.9014L319.318 23.3765C318.916 23.9455 318.372 24.3908 317.685 24.7124C316.999 25.0278 316.238 25.1855 315.403 25.1855ZM315.097 16.9473C314.565 16.9473 314.132 17.1266 313.798 17.4854C313.47 17.8441 313.26 18.3574 313.167 19.0254H316.896V18.812C316.884 18.2183 316.723 17.7606 316.414 17.439C316.105 17.1112 315.666 16.9473 315.097 16.9473ZM325.682 25.1855C324.21 25.1855 323.01 24.734 322.083 23.8311C321.161 22.9281 320.7 21.7251 320.7 20.2222V19.9624C320.7 18.9543 320.895 18.0544 321.285 17.2627C321.674 16.4648 322.225 15.8525 322.936 15.4258C323.653 14.9928 324.47 14.7764 325.385 14.7764C326.758 14.7764 327.838 15.2093 328.623 16.0752C329.415 16.9411 329.811 18.1688 329.811 19.7583V20.853H323.418C323.505 21.5086 323.765 22.0343 324.198 22.4302C324.637 22.826 325.19 23.0239 325.858 23.0239C326.891 23.0239 327.698 22.6497 328.28 21.9014L329.597 23.3765C329.195 23.9455 328.651 24.3908 327.964 24.7124C327.278 25.0278 326.517 25.1855 325.682 25.1855ZM325.376 16.9473C324.844 16.9473 324.411 17.1266 324.077 17.4854C323.749 17.8441 323.539 18.3574 323.446 19.0254H327.176V18.812C327.163 18.2183 327.003 17.7606 326.693 17.439C326.384 17.1112 325.945 16.9473 325.376 16.9473ZM334.987 20.9736L334.022 21.9385V25H331.341V10.75H334.022V18.645L334.542 17.9771L337.112 14.9619H340.331L336.704 19.146L340.646 25H337.566L334.987 20.9736ZM355.37 25H346.111V23.1631L350.48 18.5059C351.08 17.8503 351.523 17.2782 351.807 16.7896C352.098 16.3009 352.243 15.8371 352.243 15.3979C352.243 14.798 352.092 14.328 351.789 13.9878C351.486 13.6414 351.053 13.4683 350.49 13.4683C349.884 13.4683 349.404 13.6785 349.052 14.0991C348.705 14.5135 348.532 15.0609 348.532 15.7412H345.842C345.842 14.9186 346.037 14.1672 346.426 13.4868C346.822 12.8065 347.379 12.2746 348.096 11.8911C348.814 11.5015 349.627 11.3066 350.536 11.3066C351.928 11.3066 353.007 11.6406 353.774 12.3086C354.547 12.9766 354.934 13.9198 354.934 15.1382C354.934 15.8062 354.76 16.4865 354.414 17.1792C354.068 17.8719 353.474 18.679 352.633 19.6006L349.562 22.8384H355.37V25ZM366.113 19.415C366.113 21.2829 365.726 22.7116 364.953 23.7012C364.18 24.6908 363.048 25.1855 361.558 25.1855C360.086 25.1855 358.96 24.7 358.181 23.729C357.401 22.758 357.002 21.3664 356.984 19.5542V17.0679C356.984 15.1815 357.374 13.7497 358.153 12.7725C358.938 11.7952 360.067 11.3066 361.539 11.3066C363.011 11.3066 364.137 11.7922 364.916 12.7632C365.695 13.728 366.094 15.1165 366.113 16.9287V19.415ZM363.432 16.6875C363.432 15.568 363.277 14.7547 362.968 14.2476C362.665 13.7342 362.188 13.4775 361.539 13.4775C360.908 13.4775 360.441 13.7218 360.138 14.2104C359.841 14.6929 359.684 15.4505 359.665 16.4834V19.7676C359.665 20.8685 359.813 21.688 360.11 22.2261C360.413 22.758 360.896 23.0239 361.558 23.0239C362.213 23.0239 362.686 22.7673 362.977 22.2539C363.268 21.7406 363.419 20.9551 363.432 19.8975V16.6875ZM377.19 25H367.931V23.1631L372.301 18.5059C372.901 17.8503 373.343 17.2782 373.627 16.7896C373.918 16.3009 374.063 15.8371 374.063 15.3979C374.063 14.798 373.912 14.328 373.609 13.9878C373.306 13.6414 372.873 13.4683 372.31 13.4683C371.704 13.4683 371.225 13.6785 370.872 14.0991C370.526 14.5135 370.353 15.0609 370.353 15.7412H367.662C367.662 14.9186 367.857 14.1672 368.247 13.4868C368.642 12.8065 369.199 12.2746 369.917 11.8911C370.634 11.5015 371.447 11.3066 372.356 11.3066C373.748 11.3066 374.827 11.6406 375.594 12.3086C376.367 12.9766 376.754 13.9198 376.754 15.1382C376.754 15.8062 376.581 16.4865 376.234 17.1792C375.888 17.8719 375.294 18.679 374.453 19.6006L371.382 22.8384H377.19V25ZM385.354 25H382.673V14.665L379.472 15.6577V13.4775L385.066 11.4736H385.354V25Z" fill="#5D2252"/>
</svg>
