<svg width="246" height="23" viewBox="0 0 246 23" fill="none" xmlns="http://www.w3.org/2000/svg">
<path d="M93.1655 18H90.3823V4.49219H93.1655V18ZM105.644 6.74658H101.506V18H98.7227V6.74658H94.6406V4.49219H105.644V6.74658ZM121.935 14.1035L123.753 4.49219H126.527L123.53 18H120.729L118.53 8.96387L116.331 18H113.529L110.533 4.49219H113.307L115.134 14.085L117.361 4.49219H119.717L121.935 14.1035ZM132.186 18.1855C130.714 18.1855 129.514 17.734 128.586 16.8311C127.665 15.9281 127.204 14.7251 127.204 13.2222V12.9624C127.204 11.9543 127.399 11.0544 127.789 10.2627C128.178 9.46484 128.729 8.85254 129.44 8.42578C130.157 7.99284 130.974 7.77637 131.889 7.77637C133.262 7.77637 134.341 8.20931 135.127 9.0752C135.919 9.94108 136.314 11.1688 136.314 12.7583V13.853H129.922C130.009 14.5086 130.269 15.0343 130.702 15.4302C131.141 15.826 131.694 16.0239 132.362 16.0239C133.395 16.0239 134.202 15.6497 134.784 14.9014L136.101 16.3765C135.699 16.9455 135.155 17.3908 134.468 17.7124C133.782 18.0278 133.021 18.1855 132.186 18.1855ZM131.88 9.94727C131.348 9.94727 130.915 10.1266 130.581 10.4854C130.253 10.8441 130.043 11.3574 129.95 12.0254H133.68V11.812C133.667 11.2183 133.507 10.7606 133.197 10.439C132.888 10.1112 132.449 9.94727 131.88 9.94727ZM142.465 18.1855C140.993 18.1855 139.793 17.734 138.866 16.8311C137.944 15.9281 137.483 14.7251 137.483 13.2222V12.9624C137.483 11.9543 137.678 11.0544 138.068 10.2627C138.458 9.46484 139.008 8.85254 139.719 8.42578C140.437 7.99284 141.253 7.77637 142.168 7.77637C143.542 7.77637 144.621 8.20931 145.406 9.0752C146.198 9.94108 146.594 11.1688 146.594 12.7583V13.853H140.202C140.288 14.5086 140.548 15.0343 140.981 15.4302C141.42 15.826 141.974 16.0239 142.642 16.0239C143.674 16.0239 144.482 15.6497 145.063 14.9014L146.38 16.3765C145.978 16.9455 145.434 17.3908 144.748 17.7124C144.061 18.0278 143.3 18.1855 142.465 18.1855ZM142.159 9.94727C141.627 9.94727 141.194 10.1266 140.86 10.4854C140.533 10.8441 140.322 11.3574 140.229 12.0254H143.959V11.812C143.947 11.2183 143.786 10.7606 143.477 10.439C143.167 10.1112 142.728 9.94727 142.159 9.94727ZM151.771 13.9736L150.806 14.9385V18H148.125V3.75H150.806V11.645L151.325 10.9771L153.895 7.96191H157.114L153.487 12.146L157.43 18H154.35L151.771 13.9736ZM165.965 13.2407V18H163.182V4.49219H168.451C169.465 4.49219 170.356 4.67773 171.123 5.04883C171.896 5.41992 172.49 5.94873 172.904 6.63525C173.319 7.31559 173.526 8.0918 173.526 8.96387C173.526 10.2874 173.071 11.3327 172.162 12.0996C171.259 12.8604 170.007 13.2407 168.405 13.2407H165.965ZM165.965 10.9863H168.451C169.187 10.9863 169.747 10.8132 170.13 10.4668C170.52 10.1204 170.715 9.62565 170.715 8.98242C170.715 8.32064 170.52 7.78564 170.13 7.37744C169.741 6.96924 169.203 6.75895 168.516 6.74658H165.965V10.9863ZM180.911 10.4761C180.546 10.4266 180.224 10.4019 179.946 10.4019C178.931 10.4019 178.267 10.7451 177.951 11.4316V18H175.27V7.96191H177.803L177.877 9.15869C178.415 8.23714 179.16 7.77637 180.113 7.77637C180.41 7.77637 180.688 7.81657 180.948 7.89697L180.911 10.4761ZM181.458 12.8882C181.458 11.8924 181.65 11.0049 182.033 10.2256C182.417 9.44629 182.967 8.84326 183.685 8.4165C184.408 7.98975 185.246 7.77637 186.199 7.77637C187.553 7.77637 188.657 8.19076 189.511 9.01953C190.37 9.84831 190.85 10.974 190.949 12.3965L190.967 13.083C190.967 14.623 190.537 15.86 189.678 16.7939C188.818 17.7217 187.665 18.1855 186.217 18.1855C184.77 18.1855 183.613 17.7217 182.748 16.7939C181.888 15.8662 181.458 14.6045 181.458 13.0088V12.8882ZM184.139 13.083C184.139 14.0355 184.319 14.7653 184.677 15.2725C185.036 15.7734 185.549 16.0239 186.217 16.0239C186.867 16.0239 187.374 15.7765 187.739 15.2817C188.104 14.7808 188.286 13.9829 188.286 12.8882C188.286 11.9543 188.104 11.2306 187.739 10.7173C187.374 10.2039 186.861 9.94727 186.199 9.94727C185.543 9.94727 185.036 10.2039 184.677 10.7173C184.319 11.2244 184.139 12.013 184.139 13.083ZM193.268 18V9.92871H191.774V7.96191H193.268V7.49805C193.28 6.23633 193.667 5.2653 194.428 4.58496C195.195 3.89844 196.274 3.55518 197.666 3.55518C198.5 3.55518 199.515 3.73763 200.708 4.10254L200.319 6.31982C199.713 6.14046 199.243 6.02604 198.909 5.97656C198.575 5.9209 198.216 5.89307 197.833 5.89307C196.583 5.89307 195.958 6.44661 195.958 7.55371V7.96191H197.935V9.92871H195.958V18H193.268ZM201.961 18H199.271V7.96191H201.961V18ZM207.008 18H204.317V3.75H207.008V18ZM213.845 18.1855C212.373 18.1855 211.173 17.734 210.246 16.8311C209.324 15.9281 208.863 14.7251 208.863 13.2222V12.9624C208.863 11.9543 209.058 11.0544 209.448 10.2627C209.837 9.46484 210.388 8.85254 211.099 8.42578C211.817 7.99284 212.633 7.77637 213.548 7.77637C214.921 7.77637 216.001 8.20931 216.786 9.0752C217.578 9.94108 217.974 11.1688 217.974 12.7583V13.853H211.582C211.668 14.5086 211.928 15.0343 212.361 15.4302C212.8 15.826 213.354 16.0239 214.021 16.0239C215.054 16.0239 215.861 15.6497 216.443 14.9014L217.76 16.3765C217.358 16.9455 216.814 17.3908 216.127 17.7124C215.441 18.0278 214.68 18.1855 213.845 18.1855ZM213.539 9.94727C213.007 9.94727 212.574 10.1266 212.24 10.4854C211.912 10.8441 211.702 11.3574 211.609 12.0254H215.339V11.812C215.326 11.2183 215.166 10.7606 214.856 10.439C214.547 10.1112 214.108 9.94727 213.539 9.94727Z" fill="#5D2252"/>
<path d="M221 12L246 12" stroke="#5D2252" stroke-width="5"/>
<path d="M21 12H86" stroke="#5D2252" stroke-width="5"/>
<path fill-rule="evenodd" clip-rule="evenodd" d="M11.0976 22.1951C17.2266 22.1951 22.1951 17.2266 22.1951 11.0976C22.1951 4.96855 17.2266 0 11.0976 0C4.96855 0 0 4.96855 0 11.0976C0 17.2266 4.96855 22.1951 11.0976 22.1951ZM11.0976 19.0244C15.4754 19.0244 19.0244 15.4754 19.0244 11.0976C19.0244 6.71971 15.4754 3.17075 11.0976 3.17075C6.71971 3.17075 3.17075 6.71971 3.17075 11.0976C3.17075 15.4754 6.71971 19.0244 11.0976 19.0244Z" fill="#5D2252"/>
</svg>
