<svg width="246" height="23" viewBox="0 0 246 23" fill="none" xmlns="http://www.w3.org/2000/svg">
<path d="M89.374 6.74658H85.2363V18H82.4531V6.74658H78.3711V4.49219H89.374V6.74658ZM95.0518 18C94.9281 17.7588 94.8384 17.4588 94.7827 17.1001C94.1333 17.8237 93.2891 18.1855 92.25 18.1855C91.2666 18.1855 90.4502 17.901 89.8008 17.332C89.1576 16.763 88.8359 16.0456 88.8359 15.1797C88.8359 14.1159 89.2287 13.2995 90.0142 12.7305C90.8058 12.1615 91.9469 11.8739 93.4375 11.8677H94.6714V11.2925C94.6714 10.8286 94.5508 10.4575 94.3096 10.1792C94.0745 9.90088 93.7004 9.76172 93.187 9.76172C92.7355 9.76172 92.3799 9.86995 92.1201 10.0864C91.8665 10.3029 91.7397 10.5998 91.7397 10.9771H89.0586C89.0586 10.3957 89.238 9.85758 89.5967 9.36279C89.9554 8.868 90.4626 8.48145 91.1182 8.20312C91.7738 7.91862 92.5098 7.77637 93.3262 7.77637C94.5632 7.77637 95.5435 8.0887 96.2671 8.71338C96.9969 9.33187 97.3618 10.2039 97.3618 11.3296V15.6807C97.368 16.6331 97.501 17.3537 97.7607 17.8423V18H95.0518ZM92.8345 16.1353C93.2303 16.1353 93.5952 16.0487 93.9292 15.8755C94.2632 15.6961 94.5106 15.458 94.6714 15.1611V13.4355H93.6694C92.3273 13.4355 91.613 13.8994 91.5264 14.8271L91.5171 14.9849C91.5171 15.3188 91.6346 15.5941 91.8696 15.8105C92.1047 16.027 92.4263 16.1353 92.8345 16.1353ZM102.251 18H99.5605V3.75H102.251V18ZM108.114 13.9736L107.149 14.9385V18H104.468V3.75H107.149V11.645L107.669 10.9771L110.239 7.96191H113.458L109.831 12.146L113.773 18H110.693L108.114 13.9736ZM120.054 15.2261C120.054 14.8983 119.89 14.6416 119.562 14.4561C119.241 14.2643 118.721 14.0942 118.004 13.9458C115.617 13.4448 114.423 12.4305 114.423 10.9028C114.423 10.0122 114.791 9.27002 115.527 8.67627C116.269 8.07633 117.237 7.77637 118.431 7.77637C119.705 7.77637 120.722 8.07633 121.483 8.67627C122.25 9.2762 122.633 10.0555 122.633 11.0142H119.952C119.952 10.6307 119.828 10.3153 119.581 10.0679C119.334 9.81429 118.947 9.6875 118.421 9.6875C117.97 9.6875 117.62 9.78955 117.373 9.99365C117.126 10.1978 117.002 10.4575 117.002 10.7729C117.002 11.0698 117.141 11.311 117.419 11.4966C117.704 11.6759 118.18 11.8337 118.848 11.9697C119.516 12.0996 120.079 12.248 120.537 12.415C121.953 12.9346 122.661 13.8345 122.661 15.1147C122.661 16.0301 122.268 16.7723 121.483 17.3413C120.697 17.9041 119.683 18.1855 118.44 18.1855C117.599 18.1855 116.85 18.0371 116.195 17.7402C115.545 17.4372 115.035 17.0259 114.664 16.5063C114.293 15.9806 114.107 15.4147 114.107 14.8086H116.649C116.674 15.2848 116.85 15.6497 117.178 15.9033C117.506 16.1569 117.945 16.2837 118.496 16.2837C119.009 16.2837 119.396 16.1878 119.655 15.9961C119.921 15.7982 120.054 15.5415 120.054 15.2261ZM125.24 19.1597H123.246L128.218 4.49219H130.213L125.24 19.1597ZM142.199 14.1035L144.018 4.49219H146.792L143.795 18H140.993L138.794 8.96387L136.596 18H133.794L130.797 4.49219H133.571L135.399 14.085L137.625 4.49219H139.982L142.199 14.1035ZM147.413 12.8882C147.413 11.8924 147.605 11.0049 147.988 10.2256C148.372 9.44629 148.922 8.84326 149.64 8.4165C150.363 7.98975 151.201 7.77637 152.154 7.77637C153.508 7.77637 154.612 8.19076 155.466 9.01953C156.326 9.84831 156.805 10.974 156.904 12.3965L156.922 13.083C156.922 14.623 156.493 15.86 155.633 16.7939C154.773 17.7217 153.62 18.1855 152.172 18.1855C150.725 18.1855 149.569 17.7217 148.703 16.7939C147.843 15.8662 147.413 14.6045 147.413 13.0088V12.8882ZM150.094 13.083C150.094 14.0355 150.274 14.7653 150.632 15.2725C150.991 15.7734 151.504 16.0239 152.172 16.0239C152.822 16.0239 153.329 15.7765 153.694 15.2817C154.059 14.7808 154.241 13.9829 154.241 12.8882C154.241 11.9543 154.059 11.2306 153.694 10.7173C153.329 10.2039 152.816 9.94727 152.154 9.94727C151.498 9.94727 150.991 10.2039 150.632 10.7173C150.274 11.2244 150.094 12.013 150.094 13.083ZM164.214 10.4761C163.849 10.4266 163.528 10.4019 163.25 10.4019C162.235 10.4019 161.57 10.7451 161.255 11.4316V18H158.574V7.96191H161.106L161.181 9.15869C161.719 8.23714 162.464 7.77637 163.417 7.77637C163.713 7.77637 163.992 7.81657 164.251 7.89697L164.214 10.4761ZM169.159 13.9736L168.194 14.9385V18H165.513V3.75H168.194V11.645L168.714 10.9771L171.284 7.96191H174.503L170.875 12.146L174.818 18H171.738L169.159 13.9736ZM181.099 15.2261C181.099 14.8983 180.935 14.6416 180.607 14.4561C180.286 14.2643 179.766 14.0942 179.049 13.9458C176.661 13.4448 175.468 12.4305 175.468 10.9028C175.468 10.0122 175.836 9.27002 176.572 8.67627C177.314 8.07633 178.282 7.77637 179.476 7.77637C180.75 7.77637 181.767 8.07633 182.528 8.67627C183.295 9.2762 183.678 10.0555 183.678 11.0142H180.997C180.997 10.6307 180.873 10.3153 180.626 10.0679C180.379 9.81429 179.992 9.6875 179.466 9.6875C179.015 9.6875 178.665 9.78955 178.418 9.99365C178.171 10.1978 178.047 10.4575 178.047 10.7729C178.047 11.0698 178.186 11.311 178.464 11.4966C178.749 11.6759 179.225 11.8337 179.893 11.9697C180.561 12.0996 181.124 12.248 181.582 12.415C182.998 12.9346 183.706 13.8345 183.706 15.1147C183.706 16.0301 183.313 16.7723 182.528 17.3413C181.742 17.9041 180.728 18.1855 179.485 18.1855C178.644 18.1855 177.895 18.0371 177.24 17.7402C176.59 17.4372 176.08 17.0259 175.709 16.5063C175.338 15.9806 175.152 15.4147 175.152 14.8086H177.694C177.719 15.2848 177.895 15.6497 178.223 15.9033C178.551 16.1569 178.99 16.2837 179.541 16.2837C180.054 16.2837 180.44 16.1878 180.7 15.9961C180.966 15.7982 181.099 15.5415 181.099 15.2261ZM188.057 9.05664C188.768 8.20312 189.662 7.77637 190.738 7.77637C192.915 7.77637 194.019 9.04118 194.05 11.5708V18H191.369V11.645C191.369 11.0698 191.245 10.6462 190.998 10.374C190.751 10.0957 190.339 9.95654 189.764 9.95654C188.979 9.95654 188.41 10.2596 188.057 10.8657V18H185.376V3.75H188.057V9.05664ZM195.655 12.8882C195.655 11.8924 195.847 11.0049 196.23 10.2256C196.614 9.44629 197.164 8.84326 197.882 8.4165C198.605 7.98975 199.444 7.77637 200.396 7.77637C201.75 7.77637 202.854 8.19076 203.708 9.01953C204.568 9.84831 205.047 10.974 205.146 12.3965L205.165 13.083C205.165 14.623 204.735 15.86 203.875 16.7939C203.015 17.7217 201.862 18.1855 200.415 18.1855C198.967 18.1855 197.811 17.7217 196.945 16.7939C196.085 15.8662 195.655 14.6045 195.655 13.0088V12.8882ZM198.336 13.083C198.336 14.0355 198.516 14.7653 198.875 15.2725C199.233 15.7734 199.747 16.0239 200.415 16.0239C201.064 16.0239 201.571 15.7765 201.936 15.2817C202.301 14.7808 202.483 13.9829 202.483 12.8882C202.483 11.9543 202.301 11.2306 201.936 10.7173C201.571 10.2039 201.058 9.94727 200.396 9.94727C199.74 9.94727 199.233 10.2039 198.875 10.7173C198.516 11.2244 198.336 12.013 198.336 13.083ZM215.852 13.0737C215.852 14.62 215.5 15.86 214.794 16.7939C214.096 17.7217 213.149 18.1855 211.956 18.1855C210.941 18.1855 210.122 17.833 209.497 17.1279V21.8594H206.816V7.96191H209.302L209.395 8.94531C210.044 8.16602 210.892 7.77637 211.937 7.77637C213.174 7.77637 214.136 8.23405 214.822 9.14941C215.509 10.0648 215.852 11.3265 215.852 12.9346V13.0737ZM213.171 12.8789C213.171 11.945 213.004 11.2244 212.67 10.7173C212.342 10.2101 211.863 9.95654 211.232 9.95654C210.391 9.95654 209.812 10.2782 209.497 10.9214V15.0312C209.825 15.693 210.409 16.0239 211.25 16.0239C212.531 16.0239 213.171 14.9756 213.171 12.8789ZM222.958 15.2261C222.958 14.8983 222.795 14.6416 222.467 14.4561C222.145 14.2643 221.626 14.0942 220.908 13.9458C218.521 13.4448 217.327 12.4305 217.327 10.9028C217.327 10.0122 217.695 9.27002 218.431 8.67627C219.173 8.07633 220.141 7.77637 221.335 7.77637C222.609 7.77637 223.626 8.07633 224.387 8.67627C225.154 9.2762 225.538 10.0555 225.538 11.0142H222.856C222.856 10.6307 222.733 10.3153 222.485 10.0679C222.238 9.81429 221.851 9.6875 221.326 9.6875C220.874 9.6875 220.525 9.78955 220.277 9.99365C220.03 10.1978 219.906 10.4575 219.906 10.7729C219.906 11.0698 220.045 11.311 220.324 11.4966C220.608 11.6759 221.084 11.8337 221.752 11.9697C222.42 12.0996 222.983 12.248 223.441 12.415C224.857 12.9346 225.565 13.8345 225.565 15.1147C225.565 16.0301 225.173 16.7723 224.387 17.3413C223.602 17.9041 222.587 18.1855 221.344 18.1855C220.503 18.1855 219.755 18.0371 219.099 17.7402C218.45 17.4372 217.939 17.0259 217.568 16.5063C217.197 15.9806 217.012 15.4147 217.012 14.8086H219.554C219.578 15.2848 219.755 15.6497 220.083 15.9033C220.41 16.1569 220.849 16.2837 221.4 16.2837C221.913 16.2837 222.3 16.1878 222.56 15.9961C222.826 15.7982 222.958 15.5415 222.958 15.2261Z" fill="#5D2252"/>
<path d="M231 12L246 12" stroke="#5D2252" stroke-width="5"/>
<path d="M21 12H75" stroke="#5D2252" stroke-width="5"/>
<path fill-rule="evenodd" clip-rule="evenodd" d="M11.0976 22.1951C17.2266 22.1951 22.1951 17.2266 22.1951 11.0976C22.1951 4.96855 17.2266 0 11.0976 0C4.96855 0 0 4.96855 0 11.0976C0 17.2266 4.96855 22.1951 11.0976 22.1951ZM11.0976 19.0244C15.4754 19.0244 19.0244 15.4754 19.0244 11.0976C19.0244 6.71971 15.4754 3.17075 11.0976 3.17075C6.71971 3.17075 3.17075 6.71971 3.17075 11.0976C3.17075 15.4754 6.71971 19.0244 11.0976 19.0244Z" fill="#5D2252"/>
</svg>
